Coordinates
version=1
nRows=7
nColumns=40
inDegrees=yes

Units are S.I. units (second, meters, Newtons, ...)
Angles are in degrees.

endheader
time	pelvis_tilt	pelvis_list	pelvis_rotation	pelvis_tx	pelvis_ty	pelvis_tz	hip_flexion_r	hip_adduction_r	hip_rotation_r	knee_angle_r	knee_angle_r_beta	ankle_angle_r	subtalar_angle_r	mtp_angle_r	hip_flexion_l	hip_adduction_l	hip_rotation_l	knee_angle_l	knee_angle_l_beta	ankle_angle_l	subtalar_angle_l	mtp_angle_l	lumbar_extension	lumbar_bending	lumbar_rotation	arm_flex_r	arm_add_r	arm_rot_r	elbow_flex_r	pro_sup_r	wrist_flex_r	wrist_dev_r	arm_flex_l	arm_add_l	arm_rot_l	elbow_flex_l	pro_sup_l	wrist_flex_l	wrist_dev_l
      5.13000000	     -7.17788948	     -5.35176870	     -2.04338031	      0.78205448	      0.92577983	      0.45294473	     30.05194525	     -3.66065968	     -6.87558443	     66.45757094	     66.45757094	      5.81405465	    -18.73595680	      8.86403222	     21.03410023	     -5.39712738	     -4.25866610	     25.36784235	     25.36784235	     13.53810487	    -13.84484291	      3.60309917	    -10.97872547	      5.54899743	      2.01353114	      9.02436217	    -13.39541251	     -2.70437386	     35.43992558	     45.62242394	      0.00000000	      0.00000000	      4.71010597	    -14.18688288	     -0.83172752	     53.97064240	     46.14517423	      0.00000000	      0.00000000
      5.14300000	     -7.24285427	     -5.48411647	     -2.28887326	      0.78098915	      0.92661991	      0.45275343	     31.22795756	     -3.29763898	     -6.85703853	     65.27466458	     65.27466458	      5.75613745	    -18.49769028	      8.86323427	     20.39383715	     -5.56164989	     -4.49038052	     24.92463382	     24.92463382	     13.76747107	    -13.65245898	      3.57837499	    -11.00378526	      5.81257630	      1.57323099	      7.69578268	    -13.54210646	     -2.72096247	     34.70947573	     45.64466742	      0.00000000	      0.00000000	      5.41171032	    -14.79164565	     -1.09152179	     54.50045685	     46.18178306	      0.00000000	      0.00000000
      5.15600000	     -7.18465144	     -5.57799294	     -2.61965390	      0.78007413	      0.92766201	      0.45270819	     32.12622750	     -2.86220263	     -6.68123754	     63.80382859	     63.80382859	      5.51591886	    -18.32819348	      8.49361203	     19.50769557	     -5.71794754	     -4.92254615	     24.30658684	     24.30658684	     13.97143568	    -13.30666531	      3.46329681	    -11.22590236	      5.95177443	      1.94295730	      6.14147062	    -13.97430380	     -2.84341774	     33.13786753	     45.71018426	      0.00000000	      0.00000000	      6.32039067	    -15.01973611	     -1.39854700	     56.20560154	     46.24605686	      0.00000000	      0.00000000
      5.16900000	     -7.15312439	     -5.65869741	     -2.90307837	      0.77921433	      0.92848191	      0.45253244	     32.85730243	     -2.54371971	     -6.67636614	     61.95991742	     61.95991742	      4.66009204	    -18.19229301	      6.23367536	     18.67228462	     -5.83742989	     -5.32897088	     23.70692677	     23.70692677	     14.02555327	    -13.03152192	      2.84140893	    -11.36968968	      6.14853538	      1.41992271	      5.76742451	    -13.82582874	     -3.88137615	     30.24006198	     45.91808092	      0.00000000	      0.00000000	      6.01572316	    -15.71100228	     -1.66908434	     59.46832084	     46.36409599	      0.00000000	      0.00000000
      5.18200000	     -7.13233840	     -5.70383270	     -3.19055436	      0.77839420	      0.92924146	      0.45248737	     33.52677752	     -2.18101328	     -6.60467480	     59.93520941	     59.93520941	      4.47394034	    -17.84506356	      6.06953104	     17.86484864	     -5.88491675	     -5.62556851	     23.12974680	     23.12974680	     14.20933738	    -12.91511386	      2.83407328	    -11.47900920	      6.30456161	      1.51573606	      4.36062758	    -14.11274504	     -4.09691072	     29.23680397	     45.96912325	      0.00000000	      0.00000000	      6.90054962	    -15.96649947	     -2.11935081	     60.48733461	     46.43384692	      0.00000000	      0.00000000
      5.19500000	     -7.12379839	     -5.75179646	     -3.46737064	      0.77762863	      0.92982306	      0.45256939	     33.97250250	     -1.88050861	     -6.70994490	     57.41539383	     57.41539383	      3.76375669	    -17.52447982	      4.06216221	     17.10156684	     -5.96257493	     -5.96993753	     22.59855932	     22.59855932	     14.31199446	    -12.69931426	      2.45842941	    -11.59973501	      6.42776127	      1.19290388	      3.50882404	    -14.09880008	     -5.37615745	     27.75431521	     46.13867246	      0.00000000	      0.00000000	      7.09587169	    -16.42233366	     -2.63058892	     62.55181802	     46.56789557	      0.00000000	      0.00000000
      5.20800000	     -7.25425630	     -5.76371760	     -3.71878725	      0.77683317	      0.93004923	      0.45275070	     34.51297179	     -1.57141605	     -6.80179231	     54.71602420	     54.71602420	      3.75494453	    -16.86336812	      4.18850302	     16.55462932	     -5.98144533	     -6.18337286	     22.16217929	     22.16217929	     14.52069444	    -12.64503031	      2.46425323	    -11.48157450	      6.55690466	      0.95163881	      2.27204036	    -14.25526084	     -5.45676246	     27.18766545	     46.15943342	      0.00000000	      0.00000000	      7.80809054	    -16.90252321	     -2.92606524	     63.13689901	     46.60839605	      0.00000000	      0.00000000
